PathFileType	4	(X/Y/Z)	C:\Users\°ÂÌØÂü\Desktop\20210112\bx_y_5_1802-Unnamed.trc
DataRate	CameraRate	NumFrames	NumMarkers	Units	OrigDataRate	OrigDataStartFrame	OrigNumFrames
50.00	50.00	       4	0	mm	50.00	180	       478
Frame#	Time	
		

180	3.580	-656.05646	8.62828	519.97253	-626.28802	-76.56044	1525.25745	-646.91956	209.95589	533.62433	-707.44818	279.70126	751.04932	-689.16559	286.61377	886.96997				-635.24677	282.81595	1524.01379	-717.16815	-51.89024	711.80328	-707.96301	152.84273	214.76753	-708.45038	256.07733	635.85889	-672.71991	52.24697	160.49048	-700.62616	251.47154	578.19409	-745.52789	257.79434	502.79337	-517.65863	-72.58284	142.98532	-642.03815	-13.24492	823.47742	-667.36639	-71.43608	159.72884				-625.77838	-82.94876	157.03479	-769.35663	223.36902	204.91089	-882.57971	296.20798	144.68831				-602.52686	14.44335	168.83397	-560.40216	-44.66406	161.87636	-674.44073	176.06116	156.64441	-595.27032	226.75008	173.17747	-667.14655	300.44943	159.28490	-630.19342	308.88034	160.37799	-561.93518	264.34946	165.67754	-528.26062	303.99075	146.25229	-630.47797	106.55946	1831.72156	-672.38086	75.26521	582.94067	-588.79431	95.63527	1399.75085	-661.30316	150.36571	583.70447	-793.68311	171.58955	185.15434	-768.10315	-4.61058	207.58530	-791.38824	58.71447	177.14456	-711.35999	74.82466	216.47649	-760.41766	-31.80530	490.01431	-876.10980	-78.86684	141.15924	-872.79816	111.76535	1045.86548	-713.69934	-70.19707	865.38751	-704.22064	-31.60291	618.51953	-709.05658	-27.87056	568.91455	
181	3.600	-657.68774	9.95188	520.83936	-630.00586	-76.85821	1529.06335	-648.95465	209.25090	534.10547	-707.12811	279.02814	751.91327	-687.23328	285.33893	886.77502				-639.73120	282.72531	1526.92297	-717.44550	-50.49366	712.07587	-708.04449	152.90622	214.70552	-709.89569	255.40433	635.96942	-672.77661	52.32188	160.49431	-702.77930	250.10817	578.15594	-747.56879	257.52228	503.17123	-517.73041	-72.57544	142.97781	-640.18848	-13.21087	823.45294	-667.28290	-71.31054	159.73521				-625.57574	-83.17770	156.82603	-769.52686	223.53287	204.66470	-882.51776	296.06790	144.63388				-602.50421	14.58940	169.01300	-560.53497	-44.74120	161.97554	-674.55322	176.01816	156.62100	-595.13043	226.61926	173.30272	-667.12299	300.26443	159.29256	-630.20538	308.95053	160.55177	-562.00867	264.36298	165.60846	-528.30573	304.10257	146.19061	-635.27167	106.58511	1834.83142	-674.32892	76.39691	583.03943	-589.68652	95.55949	1403.16199	-663.50232	149.43036	584.01501	-793.91187	171.79279	185.38809	-768.26709	-4.33278	207.86618	-791.10663	58.73012	176.64165	-711.35999	74.82466	216.47649	-762.21338	-30.86770	490.25061	-875.97748	-78.88188	141.21204	-869.50232	111.12805	1046.81604	-711.55963	-69.54849	865.45178	-706.05219	-30.67403	618.59277	-711.15906	-26.85220	569.03253	
182	3.620	-659.84222	10.59302	521.16309	-633.60791	-76.94389	1531.77930	-650.94580	208.46094	534.36212	-707.16583	278.51663	752.31470	-684.84644	285.02432	886.99731				-643.69458	282.75742	1529.68909	-717.69702	-51.00227	713.03564	-708.35938	153.01077	214.98843	-711.49365	254.94678	636.78461	-672.56677	52.37770	160.53079	-704.90747	249.39900	578.40155	-749.50909	256.69443	503.02673	-517.83423	-72.73404	142.89162	-639.21112	-12.74523	822.42224	-667.24438	-71.25731	159.88791				-625.72046	-83.06458	156.89749	-769.55353	223.35294	204.65704	-882.48743	296.05096	144.59955				-602.38037	14.40168	168.96632	-560.40216	-44.66406	161.87636	-674.29285	175.88574	156.96112	-595.31805	226.76889	173.38383	-667.22571	300.09335	159.33694	-630.21808	308.96225	160.50334	-562.00867	264.36298	165.60846	-528.18042	304.00562	146.30885	-639.64490	106.71113	1837.63757	-676.46063	77.53563	583.30225	-590.92322	95.70815	1406.22778	-665.72565	148.56982	584.18561	-794.24579	171.82362	185.11806	-768.53497	-4.16683	207.48917	-791.16992	59.10730	176.91937	-711.49438	74.98439	216.59734	-763.62146	-30.18371	490.59113	-875.97748	-78.88188	141.21204	-865.99500	110.60907	1047.25879	-710.00183	-69.53936	865.89240	-707.61456	-29.91927	618.66809	-712.46417	-26.41577	570.11340	
183	3.640	-661.59357	11.46664	521.93927	-636.85223	-76.53893	1534.78101	-652.63489	207.86656	534.67670	-707.01532	278.05780	752.52759	-682.51727	285.22235	887.45245	-624.06390	215.94450	846.28046	-647.35321	283.82001	1532.64001	-717.57507	-50.32512	713.40448	-708.57098	153.30157	214.82703	-713.25684	254.69304	637.16431	-672.68756	52.37370	160.65195	-707.25262	248.77615	578.44678	-751.53308	256.17252	503.75842	-517.59100	-72.66482	143.03847	-637.19250	-13.16654	822.15076	-667.33002	-71.13154	159.69139				-625.56989	-83.07927	157.08180	-770.00269	223.15889	204.70284	-882.42468	295.98312	144.60002				-602.52747	14.58380	168.77208	-560.39996	-44.75167	161.94005	-674.40649	176.12250	156.72514	-595.31427	226.46454	173.18036	-667.30865	300.34778	159.21240	-630.17609	308.97375	160.38704	-562.13177	264.34344	165.59132	-528.22858	304.11649	146.35593	-643.80200	106.93123	1840.13428	-678.08771	78.37665	583.81573	-592.40790	96.04889	1408.99890	-667.97107	148.13907	584.47369	-794.25372	171.64961	185.05878	-768.89471	-4.13572	207.82767	-791.39978	59.34732	177.25400	-711.79865	74.97314	216.40059	-765.16400	-29.22314	490.70462	-875.97748	-78.88188	141.21204	-863.15845	110.47469	1048.05090	-707.85498	-70.36678	866.52399	-709.40881	-28.75811	618.71991	-714.74316	-24.95770	570.12140	
